<svg width="500" xmlns="http://www.w3.org/2000/svg" height="500" id="screenshot-1cd041a0-b7b7-809a-8006-c1fcd33d90ab" viewBox="0 0 500 500" xmlns:xlink="http://www.w3.org/1999/xlink" fill="none" version="1.1"><g id="shape-1cd041a0-b7b7-809a-8006-c1fcd33d90ab"><defs><clipPath id="frame-clip-1cd041a0-b7b7-809a-8006-c1fcd33d90ab-render-1" class="frame-clip frame-clip-def"><rect rx="0" ry="0" x="0" y="0" width="500.0000000000002" height="500" transform="matrix(1.000000, 0.000000, 0.000000, 1.000000, 0.000000, 0.000000)"/></clipPath></defs><g class="frame-container-wrapper"><g class="frame-container-blur"><g class="frame-container-shadows"><g clip-path="url(#frame-clip-1cd041a0-b7b7-809a-8006-c1fcd33d90ab-render-1)" fill="none"><g class="fills" id="fills-1cd041a0-b7b7-809a-8006-c1fcd33d90ab"><rect width="500.0000000000002" height="500" class="frame-background" x="0" transform="matrix(1.000000, 0.000000, 0.000000, 1.000000, 0.000000, 0.000000)" style="fill: rgb(214, 180, 252); fill-opacity: 0;" ry="0" rx="0" y="0"/></g><g class="frame-children"><g id="shape-1cd041a0-b7b7-809a-8006-c1fcd33d90ac" width="500" height="500" rx="0" ry="0" style="fill: rgb(0, 0, 0);"><g id="shape-1cd041a0-b7b7-809a-8006-c1fcd33d90ad" style="display: none;"><g class="fills" id="fills-1cd041a0-b7b7-809a-8006-c1fcd33d90ad"><rect width="499.9999999999998" height="500" x="0" transform="matrix(1.000000, 0.000000, 0.000000, 1.000000, 0.000000, 0.000000)" style="fill: none;" ry="0" fill="none" rx="0" y="0"/></g></g><g id="shape-1cd041a0-b7b7-809a-8006-c1fcd33d90ae"><g class="fills" id="fills-1cd041a0-b7b7-809a-8006-c1fcd33d90ae"><path d="M104.16661834716797,437.5000305175781L104.16661834716797,104.1666488647461C104.16661834716797,81.1548080444336,122.82152557373047,62.50002670288086,145.83335876464844,62.50002670288086L354.166748046875,62.50002670288086C377.178466796875,62.50002670288086,395.833251953125,81.1548080444336,395.833251953125,104.1666488647461L395.833251953125,437.5000305175781L333.333251953125,395.8334045410156L291.666748046875,437.5000305175781L249.99998474121094,395.8334045410156L208.33323669433594,437.5000305175781L166.66673278808594,395.8334045410156ZM187.49998474121094,145.83340454101562L312.5,145.83340454101562M187.49998474121094,229.16665649414062L312.5,229.16665649414062M270.833251953125,312.5000305175781L312.5,312.5000305175781" fill="none" stroke-linecap="round" stroke-linejoin="round" style="fill: none;"/></g><g fill="none" stroke-linecap="round" stroke-linejoin="round" id="strokes-8c008955-6482-8070-8006-eda6596746fd-1cd041a0-b7b7-809a-8006-c1fcd33d90ae" class="strokes"><g class="stroke-shape"><path d="M104.16661834716797,437.5000305175781L104.16661834716797,104.1666488647461C104.16661834716797,81.1548080444336,122.82152557373047,62.50002670288086,145.83335876464844,62.50002670288086L354.166748046875,62.50002670288086C377.178466796875,62.50002670288086,395.833251953125,81.1548080444336,395.833251953125,104.1666488647461L395.833251953125,437.5000305175781L333.333251953125,395.8334045410156L291.666748046875,437.5000305175781L249.99998474121094,395.8334045410156L208.33323669433594,437.5000305175781L166.66673278808594,395.8334045410156ZM187.49998474121094,145.83340454101562L312.5,145.83340454101562M187.49998474121094,229.16665649414062L312.5,229.16665649414062M270.833251953125,312.5000305175781L312.5,312.5000305175781" style="fill: none; stroke-width: 41.6667; stroke: rgb(214, 180, 252); stroke-opacity: 1;"/></g></g></g></g></g></g></g></g></g></g></svg>